<?xml version="1.0" standalone="no"?>
<!DOCTYPE svg PUBLIC "-//W3C//DTD SVG 1.1//EN" "http://www.w3.org/Graphics/SVG/1.1/DTD/svg11.dtd" >
<svg xmlns="http://www.w3.org/2000/svg">
<metadata>Generated by IcoMoon</metadata>
<defs>
<font id="icomoon" horiz-adv-x="1024">
<font-face units-per-em="1024" ascent="960" descent="-64" />
<missing-glyph horiz-adv-x="1024" />
<glyph unicode="&#x20;" horiz-adv-x="512" d="" />
<glyph unicode="&#xe900;" glyph-name="Analysis" d="M704 640h128v-576h-128v576zM448 448h128v-384h-128v384zM192 256h128v-192h-128v192zM672 704c-17.673 0-32-14.327-32-32v-64c0-53.020-42.98-96-96-96h-128c-17.673 0-32-14.327-32-32v-64c0-53.020-42.98-96-96-96h-96v64h96c17.673 0 32 14.327 32 32v64c0 53.020 42.98 96 96 96h128c17.673 0 32 14.327 32 32v64c0 53.019 42.98 96 96 96h160v-64h-160z" />
<glyph unicode="&#xe901;" glyph-name="entry" d="M192 832h704v-64h-704v64zM192 128h704v-64h-704v64zM640 768h256v-640h-256v640zM128 832h64v-768h-64v768z" />
<glyph unicode="&#xe902;" glyph-name="horizontal_line" d="M325.491 506.509c16.973 0 33.252 6.743 45.254 18.746l96 96c24.994 24.994 65.516 24.994 90.51 0l96-96c12.002-12.003 28.281-18.746 45.254-18.746h229.491c17.67 0 32-14.326 32-32s-14.33-32-32-32h-229.491c-16.973 0-33.252-6.742-45.254-18.745l-96-96c-24.994-24.993-65.516-24.993-90.51 0l-96 96c-12.002 12.003-28.281 18.745-45.254 18.745h-229.491c-17.673 0-32 14.327-32 32s14.327 32 32 32h229.491z" />
<glyph unicode="&#xe903;" glyph-name="icon_1" d="M832 832h-64v-768h64v768zM704 768h-320v-64h320v64zM704 640h-512v-64h512v64zM320 512h384v-64h-384v64zM704 384h-256v-64h256v64zM320 256h384v-64h-384v64z" />
<glyph unicode="&#xe904;" glyph-name="icon_1-1" d="M384 704h448v-128h-448v128zM384 512h448v-128h-448v128zM384 320h448v-128h-448v128zM192 704h128v-128h-128v128zM192 512h128v-128h-128v128zM192 320h128v-128h-128v128z" />
<glyph unicode="&#xe905;" glyph-name="icon_1-2" d="M192 512h640v-128h-640v128zM448 768h128v-640h-128v640z" />
<glyph unicode="&#xe906;" glyph-name="icon_1-3" d="M192 512h640v-128h-640v128z" />
<glyph unicode="&#xe907;" glyph-name="icon_1-4" d="M128 832h64v-192h-64v192zM192 832h128v-64h-128v64zM896 64h-64v192h64v-192zM832 64h-128v64h128v-64zM293.76 382.175l371.096 371.086c19.653 19.652 51.517 19.652 71.169 0l81.336-81.334c19.652-19.652 19.652-51.515 0-71.167l-371.096-371.086-152.505 152.501zM192 280.686l50.835 50.834 152.505-152.501-50.835-50.834h-152.505v152.501z" />
<glyph unicode="&#xe908;" glyph-name="icon_1-5" d="M704 672c0 17.673 14.327 32 32 32h128c17.673 0 32-14.327 32-32v-448c0-17.673-14.327-32-32-32h-128c-17.673 0-32 14.327-32 32v448zM768 896h64v-896h-64v896zM256 448h320v-64h-320v64zM562.973 415.773l-105.373 105.372 45.255 45.255 128-128c12.497-12.497 12.497-32.758 0-45.255l-128-128-45.255 45.255 105.373 105.373zM128 704h64v-576h-64v576z" />
<glyph unicode="&#xe909;" glyph-name="icon_1-6" d="M256 832h64v-128h32c17.688 0 32-14.328 32-32v-448c0-17.672-14.312-32-32-32h-32v-128h-64v128h-32c-17.687 0-32 14.328-32 32v448c0 17.672 14.313 32 32 32h32v128zM896 640h-384v-64h384v64zM512 512h384v-64h-384v64zM896 384h-384v-64h384v64z" />
<glyph unicode="&#xe90a;" glyph-name="icon_1-7" d="M703.969 448h192v64h-198.406c4.188-20.68 6.406-42.086 6.406-64zM677.344 576h218.625v64h-255.969c14.781-19.695 27.375-41.148 37.344-64zM677.344 320c8.875 20.32 15.687 41.742 20.218 64h198.406v-64h-218.625zM576 192c24.219 18.203 45.812 39.766 64 64h255.969v-64h-319.969zM384 640v64c-141.375 0-256-114.617-256-256s114.625-256 256-256v192h-64v256h64zM384 384v-192c141.375 0 256 114.617 256 256s-114.625 256-256 256v-256h128v-64h-128z" />
<glyph unicode="&#xe90b;" glyph-name="price_chanel" d="M640 576c0 35.346 28.654 64 64 64h64c35.346 0 64-28.654 64-64v-64c0-35.346-28.654-64-64-64h-64c-35.346 0-64 28.654-64 64v64zM320 256c0 35.346 28.654 64 64 64h64c35.346 0 64-28.654 64-64v-64c0-35.346-28.654-64-64-64h-64c-35.346 0-64 28.654-64 64v64zM886.813 697.827c12.497-12.497 12.497-32.758 0-45.255l-594.744-594.744c-12.499-12.499-32.758-12.497-45.255 0s-12.499 32.755 0 45.255l594.744 594.744c12.497 12.497 32.758 12.497 45.255 0zM288 623.36c0 35.346 28.654 64 64 64h64c35.346 0 64-28.654 64-64v-64c0-35.346-28.654-64-64-64h-64c-35.346 0-64 28.654-64 64v64zM630.813 841.187c12.497-12.497 12.497-32.758 0-45.255l-466.745-466.745c-12.499-12.499-32.758-12.497-45.255 0s-12.499 32.755 0 45.255l466.745 466.745c12.497 12.497 32.758 12.497 45.255 0z" />
<glyph unicode="&#xe90c;" glyph-name="icon_1-8" d="M448 672c0 17.673 14.327 32 32 32h128c17.673 0 32-14.327 32-32v-384c0-17.673-14.327-32-32-32h-128c-17.673 0-32 14.327-32 32v384zM512 832h64v-704h-64v704zM128 832h64v-192h-64v192zM192 832h128v-64h-128v64zM960 64h-64v192h64v-192zM896 64h-128v64h128v-64zM128 64h64v192h-64v-192zM192 64h128v64h-128v-64zM960 832h-64v-192h64v192zM896 832h-128v-64h128v64z" />
<glyph unicode="&#xe90d;" glyph-name="icon_1-9" d="M474.466 496.832c-15.744 33.408-31.296 68.16-46.656 104.256s-29.952 71.808-43.776 107.136c-13.824 35.328-26.688 69.12-38.592 101.376-11.52 32.256-21.504 61.056-29.952 86.4h99.072c7.68-23.040 15.936-48 24.768-74.88 9.216-26.496 18.432-52.992 27.648-79.488 9.6-26.496 18.816-51.84 27.648-76.032s17.088-45.12 24.768-62.784c7.296 17.664 15.36 38.592 24.192 62.784 9.216 24.192 18.432 49.536 27.648 76.032 9.6 26.496 18.816 52.992 27.648 79.488 9.216 26.88 17.664 51.84 25.344 74.88h95.616c-8.832-25.344-19.008-54.144-30.528-86.4s-24.192-66.048-38.016-101.376c-13.824-35.328-28.416-71.040-43.776-107.136s-30.912-70.848-46.656-104.256h-86.4zM558.4 405.376c4.608-15.744 9.6-33.6 14.976-53.568 5.76-19.584 11.712-39.936 17.856-61.056 6.528-21.12 13.056-42.24 19.584-63.36s12.864-40.704 19.008-58.752c4.992 19.584 9.984 40.896 14.976 63.936 5.376 23.040 10.368 46.848 14.976 71.424s9.024 48.96 13.248 73.152c4.608 24.576 8.832 48.192 12.672 70.848h93.312c-13.44-66.816-28.992-134.592-46.656-203.328-17.28-68.736-36.096-134.016-56.448-195.84h-82.368c-13.44 36.864-26.496 75.456-39.168 115.776-12.672 40.704-25.152 81.408-37.44 122.112-12.288-40.704-24.576-81.408-36.864-122.112-12.288-40.32-25.152-78.912-38.592-115.776h-82.368c-20.352 61.824-39.36 127.104-57.024 195.84-17.28 68.736-32.64 136.512-46.080 203.328h97.344c3.84-22.656 8.064-46.272 12.672-70.848 4.608-24.192 9.408-48.576 14.4-73.152s9.984-48.384 14.976-71.424c5.376-23.040 10.752-44.352 16.128-63.936 6.912 18.816 13.632 38.784 20.16 59.904s12.864 42.24 19.008 63.36c6.144 21.12 11.712 41.472 16.704 61.056 5.376 19.584 10.176 37.056 14.4 52.416h76.608z" />
<glyph unicode="&#xe90e;" glyph-name="icon_1-10" d="M768 384c-35.346 0-64 28.654-64 64s28.654 64 64 64c35.346 0 64-28.654 64-64s-28.654-64-64-64zM512 384c-35.346 0-64 28.654-64 64s28.654 64 64 64c35.346 0 64-28.654 64-64s-28.654-64-64-64zM192 448c0-35.346 28.654-64 64-64s64 28.654 64 64c0 35.346-28.654 64-64 64s-64-28.654-64-64z" />
<glyph unicode="&#xe90f;" glyph-name="icon_1-11" d="M448 640v192h-256c-35.344 0-64-28.656-64-64v-640c0-35.341 28.656-64 64-64h256v192h-64v384h64zM448 640v192h384c35.344 0 64-28.656 64-64v-640c0-35.341-28.656-64-64-64h-384v384h192v64h-192v64h192v64h-192z" />
<glyph unicode="&#xe910;" glyph-name="icon_1-12" d="M576 192h-320v64h320v-64zM768 320h-512v64h512v-64zM640 448h-384v64h384v-64zM512 576h-256v64h256v-64zM640 704h-384v64h384v-64zM192 128h-64v704h64v-704zM896 128h-64v704h64v-704z" />
<glyph unicode="&#xe911;" glyph-name="icon_1-13" d="M640 832h-128v-448h-128v256h-128v-320h-128v-256h768v448h-128v-256h-128v576z" />
<glyph unicode="&#xe912;" glyph-name="Indicators" d="M704 448h64v-320h-64v320zM832 512h64v-384h-64v384zM256 448h64v-320h-64v320zM576 384h64v-256h-64v256zM384 384h64v-256h-64v256zM128 512h64v-384h-64v384zM284.323 734.093c-38.669 21.092-88.193 33.907-156.323 33.907v-64c59.87 0 98.346-11.185 125.677-26.093 28.6-15.107 46.23-34.968 65.74-58.393 2.376-2.849 4.77-5.752 7.194-8.692 17.455-21.169 36.484-44.245 61.691-62.791 30.963-22.293 69.654-36.031 123.698-36.031s92.735 13.738 123.698 36.031c25.207 18.547 44.236 41.623 61.692 62.791 2.424 2.94 4.818 5.843 7.194 8.692 19.51 23.425 37.14 43.286 65.74 58.393 27.328 14.908 65.805 26.093 125.677 26.093v64c-68.128 0-117.651-12.815-156.323-33.907-37.4-20.893-63.77-49.032-84.26-73.607-3.474-4.171-6.798-8.238-10.027-12.189-15.844-19.384-29.401-35.969-47.088-48.328-19.037-13.707-44.346-23.969-86.302-23.969s-67.265 10.262-86.302 23.969c-17.687 12.358-31.244 28.944-47.088 48.328-3.229 3.951-6.553 8.018-10.027 12.189-20.49 24.575-46.86 52.714-84.26 73.607z" />
<glyph unicode="&#xe913;" glyph-name="mouse-trading" d="M192 512h640v-192c0-141.385-114.615-256-256-256h-128c-141.385 0-256 114.615-256 256v192zM576 832c141.375 0 256-114.617 256-256h-288v26.617c19.125 16.602 32 47.625 32 83.156s-12.875 66.555-32 83.156v63.070h32zM448 832c-141.375 0-256-114.617-256-256h288v26.617c-19.125 16.602-32 47.625-32 83.156s12.875 66.555 32 83.156v63.070h-32z" />
<glyph unicode="&#xe914;" glyph-name="Overlay" d="M481.779 792.766l-317.953-161.788c-47.767-24.317-47.767-91.924 0-116.241l317.953-161.796c18.965-9.645 41.478-9.645 60.443 0l317.951 161.796c47.77 24.317 47.77 91.923 0 116.241l-317.951 161.788c-18.965 9.645-41.478 9.645-60.443 0zM163.825 381.271l39.929 20.312 308.245-156.858 308.243 156.858 39.93-20.312c47.77-24.317 47.77-91.924 0-116.241l-317.951-161.798c-18.965-9.645-41.478-9.645-60.443 0l-317.953 161.798c-47.767 24.317-47.767 91.924 0 116.241z" />
<glyph unicode="&#xe915;" glyph-name="vertical_line-1" d="M96 512h768v-64h-768v64zM896 576c35.346 0 64-28.654 64-64v-64c0-35.346-28.654-64-64-64h-64c-35.346 0-64 28.654-64 64v64c0 35.346 28.654 64 64 64h64zM192 576c35.346 0 64-28.654 64-64v-64c0-35.346-28.654-64-64-64h-64c-35.346 0-64 28.654-64 64v64c0 35.346 28.654 64 64 64h64z" />
<glyph unicode="&#xe916;" glyph-name="vertical_line" d="M448 64v768h64v-768h-64zM384 832c0 35.346 28.654 64 64 64h64c35.346 0 64-28.654 64-64v-64c0-35.346-28.654-64-64-64h-64c-35.346 0-64 28.654-64 64v64zM384 128c0 35.346 28.654 64 64 64h64c35.346 0 64-28.654 64-64v-64c0-35.346-28.654-64-64-64h-64c-35.346 0-64 28.654-64 64v64z" />
<glyph unicode="&#xe917;" glyph-name="triangle" d="M480 896c-53.031 0-96-42.984-96-96 0-29.313 13.125-55.562 33.844-73.172l-279.688-473.318c-42.5-9.888-74.156-48-74.156-93.51 0-53.018 42.969-96 96-96 41.812 0 77.344 26.72 90.531 64h449.25v64h-449.25c-7.812 22.131-23.531 40.538-43.75 51.846l271.937 460.161c0.438 0 0.844-0.008 1.281-0.008 3.219 0 6.375 0.156 9.5 0.461l210.281-308.406v113.602l-151.781 222.594c17.281 17.359 28 41.304 28 67.75 0 53.016-42.969 96-96 96zM773.208 127.784h-73.688v64h73.688c6.563 18.524 18.593 34.445 34.219 45.773l-107.907 158.282v113.601l173.219-254.070c48.813-4.539 87-45.61 87-95.586 0-53.016-42.969-96-96-96-41.812 0-77.344 26.719-90.531 64z" />
<glyph unicode="&#xe918;" glyph-name="top-botton-pattern" d="M511.998 672c0-23.235-8.25-44.539-22-61.148l118-196.657 118 196.641c-13.75 16.609-22 37.922-22 61.164 0 53.016 42.972 96 96.002 96s96-42.984 96-96c0-23.969-8.781-45.883-23.315-62.703l83.098-145.421c8.781-15.344 3.437-34.891-11.91-43.656-15.341-8.774-34.874-3.437-43.654 11.906l-83.066 145.398c-5.562-1-11.309-1.523-17.152-1.523-6.566 0-12.941 0.656-19.13 1.907l-172.872-288.102-172.844 288.102c-6.188-1.251-12.594-1.907-19.156-1.907-4.781 0-9.469 0.351-14.062 1.023l-245.656-463.999c-8.25-15.616-27.625-21.581-43.25-13.306-15.625 8.269-21.563 27.635-13.313 43.251l245.656 464.008c-15.75 17.101-25.375 39.937-25.375 65.023 0 53.016 42.969 96 96 96s96-42.984 96-96z" />
<glyph unicode="&#xe919;" glyph-name="spiral" d="M640 64h320v512h-320v-64h256v-64h-192v-64h192v-64h-192v-192h-64v-64zM576 576h64v-512h-64v512zM96 898.56c-17.687 0-32-14.328-32-32v-128c0-17.672 14.313-32 32-32h112.406l120.968-120.961 45.251 45.258-118.625 118.625v117.078c0 17.672-14.312 32-32 32h-128zM764.312 650.084c-36.812 20.484-79.219 32.156-124.312 32.156-141.375 0-256-114.617-256-256 0-94.75 51.469-177.484 128-221.75v78.641c-39.281 35.156-64 86.25-64 143.109 0 106.039 85.969 192 192 192 32.813 0 63.719-8.242 90.75-22.765l33.562 54.609zM831.375 759.224c-56.344 32.453-121.687 51.016-191.375 51.016-212.063 0-384-171.922-384-384 0-167.196 106.875-309.427 256-362.15v68.774c-113 49.384-192 162.157-192 293.376 0 176.734 143.281 320 320 320 57.406 0 111.281-15.117 157.844-41.578l33.531 54.563z" />
<glyph unicode="&#xe91a;" glyph-name="time-zone" d="M640 64h320v512h-320v-64h256v-64h-192v-64h192v-64h-192v-192h-64v-64zM576 576h64v-512h-64v512zM352 64c-17.673 0-32 14.327-32 32v704c0 17.67 14.327 32 32 32s32-14.33 32-32v-704c0-17.673-14.327-32-32-32zM480 64c-17.673 0-32 14.327-32 32v704c0 17.67 14.327 32 32 32s32-14.33 32-32v-704c0-17.673-14.327-32-32-32zM672 640c-17.673 0-32 14.327-32 32v128c0 17.673 14.327 32 32 32s32-14.327 32-32v-128c0-17.673-14.327-32-32-32zM800 640c-17.673 0-32 14.327-32 32v128c0 17.673 14.327 32 32 32s32-14.327 32-32v-128c0-17.673-14.327-32-32-32zM128 96c0-17.67 14.312-32 32-32s32 14.33 32 32v352h32c17.688 0 32 14.328 32 32v128c0 17.672-14.312 32-32 32h-32v160c0 17.672-14.312 32-32 32s-32-14.328-32-32v-160h-32c-17.687 0-32-14.328-32-32v-128c0-17.672 14.313-32 32-32h32v-352z" />
<glyph unicode="&#xe91b;" glyph-name="time-goal-analysis" d="M640 64h320v512h-320v-64h256v-64h-192v-64h192v-64h-192v-192h-64v-64zM576 576h64v-512h-64v512zM160 64c-17.673 0-32 14.327-32 32v704c0 17.67 14.327 32 32 32s32-14.33 32-32v-704c0-17.673-14.327-32-32-32zM352 64c-17.673 0-32 14.327-32 32v704c0 17.67 14.327 32 32 32s32-14.33 32-32v-704c0-17.673-14.327-32-32-32zM480 64c-17.673 0-32 14.327-32 32v704c0 17.67 14.327 32 32 32s32-14.33 32-32v-704c0-17.673-14.327-32-32-32zM800 640c-17.673 0-32 14.327-32 32v128c0 17.673 14.327 32 32 32s32-14.327 32-32v-128c0-17.673-14.327-32-32-32z" />
<glyph unicode="&#xe91c;" glyph-name="rulers" d="M128 256h768v-64h-768v64zM128 640h768v-64h-768v64zM640 448h64v-256h-64v256zM384 448h64v-256h-64v256zM512 384h64v-192h-64v192zM768 384h64v-192h-64v192zM256 384h64v-192h-64v192zM896 640h64v-448h-64v448zM128 640h64v-448h-64v448z" />
<glyph unicode="&#xe91d;" glyph-name="retracement" d="M128 704h64v-512h-64v512zM192 448h320v-64h-320v64zM192 576h320v-64h-320v64zM192 320h320v-64h-320v64zM64 864c0 17.673 14.327 32 32 32h128c17.673 0 32-14.327 32-32v-128c0-17.673-14.327-32-32-32h-128c-17.673 0-32 14.327-32 32v128zM64 160c0 17.673 14.327 32 32 32h128c17.673 0 32-14.327 32-32v-128c0-17.673-14.327-32-32-32h-128c-17.673 0-32 14.327-32 32v128zM640 64h320v512h-320v-64h256v-64h-192v-64h192v-64h-192v-192h-64v-64zM576 576h64v-512h-64v512zM320 768h576v-64h-576v64z" />
<glyph unicode="&#xe91e;" glyph-name="regression-channel" d="M704 768c0 35.346 28.654 64 64 64h64c35.346 0 64-28.654 64-64v-64c0-35.346-28.654-64-64-64h-64c-35.346 0-64 28.654-64 64v64zM128 192c0 35.346 28.654 64 64 64h64c35.346 0 64-28.654 64-64v-64c0-35.346-28.654-64-64-64h-64c-35.346 0-64 28.654-64 64v64zM192.186 176.456l575.999 575.999 45.255-45.255-575.999-575.999-45.255 45.255zM854.813 489.187c12.497-12.497 12.497-32.758 0-45.255l-338.745-338.745c-12.497-12.497-32.758-12.497-45.255 0s-12.497 32.758 0 45.255l338.745 338.745c12.497 12.497 32.758 12.497 45.255 0zM534.813 809.187c12.497-12.497 12.497-32.758 0-45.255l-338.745-338.745c-12.497-12.497-32.758-12.497-45.255 0s-12.497 32.758 0 45.255l338.745 338.745c12.497 12.497 32.758 12.497 45.255 0z" />
<glyph unicode="&#xe91f;" glyph-name="rectangle" d="M64 736c0 53.016 42.969 96 96 96 41.812 0 77.344-26.719 90.531-64h261.469v-64h-261.469c-9.625-27.281-31.25-48.899-58.531-58.539v-394.922c27.281-9.64 48.906-31.258 58.531-58.539h261.469v-64h-261.469c-13.187-37.28-48.719-64-90.531-64-53.031 0-96 42.982-96 96 0 41.797 26.719 77.359 64 90.539v394.922c-37.281 13.18-64 48.742-64 90.539zM960 160c0-53.016-42.969-96-96-96-41.812 0-77.344 26.719-90.531 64h-261.469v64h261.469c9.625 27.281 31.25 48.899 58.531 58.539v394.922c-27.281 9.64-48.906 31.258-58.531 58.539h-261.469v64h261.469c13.187 37.28 48.719 64 90.531 64 53.031 0 96-42.982 96-96 0-41.797-26.719-77.359-64-90.539v-394.922c37.281-13.18 64-48.742 64-90.539z" />
<glyph unicode="&#xe920;" glyph-name="ppz" d="M109.421 165.945c-14.394 10.258-17.741 30.241-7.488 44.632l120.634 169.226c19.13 26.832 59.699 24.529 75.669-4.295l64.544-116.51 113.137 194.502c17.276 29.699 60.175 29.699 77.451 0l112.060-192.651 202.097 393.765c8.070 15.723 27.358 21.927 43.081 13.857s21.927-27.357 13.858-43.081l-218.125-424.995c-16.17-31.505-60.777-32.68-78.582-2.069l-113.114 194.462-113.544-195.202c-17.485-30.060-61.062-29.604-77.914 0.816l-66.179 119.457-102.957-144.432c-10.253-14.391-30.24-17.741-44.627-7.483zM128 800c0 17.673 14.327 32 32 32h704c17.67 0 32-14.327 32-32s-14.33-32-32-32h-704c-17.673 0-32 14.327-32 32zM128 96c0 17.673 14.327 32 32 32h704c17.67 0 32-14.327 32-32s-14.33-32-32-32h-704c-17.673 0-32 14.327-32 32z" />
<glyph unicode="&#xe921;" glyph-name="polygon" d="M274.531 689.649l237.469 142.351v-74.617l-197.187-118.204c3.343-9.781 5.187-20.266 5.187-31.18 0-41.797-26.719-77.359-64-90.539v-138.922c37.281-13.18 64-48.742 64-90.539 0-10.836-1.781-21.25-5.094-30.969l197.094-118.375v-74.656l-237.25 142.484c-14.719-9.18-32.125-14.484-50.75-14.484-53.031 0-96 42.984-96 96 0 41.797 26.719 77.359 64 90.539v138.922c-37.281 13.18-64 48.742-64 90.539 0 53.016 42.969 96 96 96 18.531 0 35.844-5.25 50.531-14.351zM749.469 206.351l-237.469-142.351v74.617l197.187 118.204c-3.343 9.781-5.187 20.266-5.187 31.18 0 41.797 26.719 77.359 64 90.539v138.922c-37.281 13.18-64 48.742-64 90.539 0 10.836 1.781 21.25 5.094 30.969l-197.094 118.375v74.656l237.25-142.484c14.719 9.18 32.125 14.484 50.75 14.484 53.031 0 96-42.984 96-96 0-41.797-26.719-77.359-64-90.539v-138.922c37.281-13.18 64-48.742 64-90.539 0-53.016-42.969-96-96-96-18.531 0-35.844 5.25-50.531 14.351z" />
<glyph unicode="&#xe922;" glyph-name="phi-channel" d="M640 64h320v512h-320v-64h256v-64h-192v-64h192v-64h-192v-192h-64v-64zM576 576h64v-512h-64v512zM91.543 554.479c-12.031 12.946-11.289 33.194 1.658 45.224l332.879 309.342c12.946 12.031 33.194 11.289 45.224-1.658s11.288-33.194-1.658-45.224l-332.879-309.342c-12.946-12.031-33.194-11.289-45.224 1.658zM759.063 650.479c-12.031 12.946-11.289 33.194 1.658 45.224l159.515 148.235c12.946 12.031 33.194 11.289 45.224-1.658s11.288-33.194-1.658-45.224l-159.515-148.235c-12.946-12.031-33.194-11.289-45.224 1.658zM320 198.32v-102.516c0-17.672-14.312-32-32-32h-128c-17.687 0-32 14.328-32 32v128c0 17.672 14.313 32 32 32h128l183.688 170.836c12.938 12.031 33.187 11.289 45.219-1.656s11.281-33.195-1.656-45.227l-195.25-181.438zM39.653 287.253c-12.937-12.031-13.687-32.274-1.656-45.219 12.031-12.953 32.281-13.695 45.219-1.664l223.438 207.625h109.562c17.688 0 32 14.328 32 32v99.555l212 197.008c12.936 12.031 13.685 32.281 1.656 45.227-12.031 12.945-32.282 13.688-45.219 1.656l-197.532-183.57c-0.938 0.086-1.937 0.125-2.906 0.125h-128c-17.688 0-32-14.328-32-32v-119.5l-216.563-201.242z" />
<glyph unicode="&#xe923;" glyph-name="line" d="M704 768c0 35.346 28.654 64 64 64h64c35.346 0 64-28.654 64-64v-64c0-35.346-28.654-64-64-64h-64c-35.346 0-64 28.654-64 64v64zM128 192c0 35.346 28.654 64 64 64h64c35.346 0 64-28.654 64-64v-64c0-35.346-28.654-64-64-64h-64c-35.346 0-64 28.654-64 64v64zM192.186 176.456l575.999 575.999 45.255-45.255-575.999-575.999-45.255 45.255z" />
<glyph unicode="&#xe924;" glyph-name="gann-line" d="M640 64h320v512h-320v-64h256v-64h-192v-256h128v64h-64v64h128v-192h-256v-64zM576 576h64v-512h-64v512zM512 493.44v-90.5l-256-256v-114.75c0-17.672-14.312-32-32-32h-128c-17.687 0-32 14.328-32 32v128c0 17.672 14.313 32 32 32h114.75l301.25 301.25zM799.81 896c-17.688 0-32-14.328-32-32v-114.75l-109.25-109.25h90.5l64 64h114.75c17.688 0 32 14.328 32 32v128c0 17.672-14.312 32-32 32h-128z" />
<glyph unicode="&#xe925;" glyph-name="gann-grid" d="M640 64h320v512h-320v-64h256v-64h-192v-256h128v64h-64v64h128v-192h-256v-64zM576 576h64v-512h-64v512zM470.813 900.067c12.497-12.497 12.497-32.758 0-45.255l-402.746-402.746c-12.497-12.497-32.758-12.497-45.255 0s-12.497 32.758 0 45.255l402.746 402.746c12.497 12.497 32.758 12.497 45.255 0zM610.333 761.187c12.497-12.497 12.497-32.758 0-45.255l-402.746-402.746c-12.497-12.497-32.758-12.497-45.255 0s-12.497 32.758 0 45.255l402.746 402.746c12.497 12.497 32.758 12.497 45.255 0zM493.853 366.947c12.497-12.497 12.497-32.758 0-45.255l-146.745-146.745c-12.497-12.497-32.758-12.497-45.255 0s-12.497 32.758 0 45.255l146.745 146.745c12.497 12.497 32.758 12.497 45.255 0zM22.734 636.011c12.54 12.453 32.872 12.453 45.412 0l443.304-440.237c12.538-12.451 12.54-32.644 0-45.097s-32.873-12.451-45.412 0l-443.304 440.237c-12.54 12.453-12.54 32.644 0 45.097zM162.333 774.813c12.497 12.497 32.758 12.497 45.255 0l274.745-274.745c12.497-12.497 12.497-32.758 0-45.255s-32.758-12.497-45.255 0l-274.745 274.745c-12.497 12.497-12.497 32.758 0 45.255zM301.853 913.053c12.497 12.497 32.758 12.497 45.255 0l274.745-274.745c12.497-12.497 12.497-32.758 0-45.255s-32.758-12.497-45.255 0l-274.745 274.745c-12.497 12.497-12.497 32.758 0 45.255z" />
<glyph unicode="&#xe926;" glyph-name="fib_Ellipses" d="M640 64h320v512h-320v-64h256v-64h-192v-64h192v-64h-192v-192h-64v-64zM576 576h64v-512h-64v512zM512 128c-221.688 0-384 152.172-384 320s162.312 320 384 320c129.187 0 238.189-51.672 306.688-128h81.376c-77.472 114.781-222.22 192-388.064 192-247.437 0-448-171.922-448-384s200.563-384 448-384v64zM700.781 645.433l-87.156-31.57c-30.156 9.273-64.188 14.617-101.625 14.617-158.5 0-256-95.711-256-180.367 0-84.648 97.5-180.359 256-180.359v-64c-176.719 0-320 109.406-320 244.359 0 134.961 143.281 244.367 320 244.367 70.594 0 135.844-17.461 188.781-47.047z" />
<glyph unicode="&#xe927;" glyph-name="gann-fan" d="M640 64h320v512h-320v-64h256v-64h-192v-256h128v64h-64v64h128v-192h-256v-64zM576 576h64v-512h-64v512zM128 192v320h64v-320h-64zM509.72 235.876c6.564-16.409-1.418-35.032-17.827-41.596l-320-128c-16.409-6.564-35.032 1.418-41.596 17.827s1.418 35.032 17.827 41.596l320 128c16.409 6.564 35.032-1.418 41.596-17.827zM690.824 825.877c14.293-10.395 17.453-30.408 7.058-44.701l-512-703.999c-10.395-14.291-30.408-17.453-44.701-7.059s-17.453 30.406-7.058 44.704l512 703.997c10.395 14.293 30.408 17.453 44.701 7.058zM64 672c0 17.673 14.327 32 32 32h128c17.673 0 32-14.327 32-32v-128c0-17.673-14.327-32-32-32h-128c-17.673 0-32 14.327-32 32v128zM64 160c0 17.673 14.327 32 32 32h128c17.673 0 32-14.327 32-32v-128c0-17.673-14.327-32-32-32h-128c-17.673 0-32 14.327-32 32v128z" />
<glyph unicode="&#xe928;" glyph-name="fans" d="M640 64h320v512h-320v-64h256v-64h-192v-64h192v-64h-192v-192h-64v-64zM576 576h64v-512h-64v512zM128 192v320h64v-320h-64zM509.72 235.876c6.564-16.409-1.418-35.032-17.827-41.596l-320-128c-16.409-6.564-35.032 1.418-41.596 17.827s1.418 35.032 17.827 41.596l320 128c16.409 6.564 35.032-1.418 41.596-17.827zM690.824 825.877c14.293-10.395 17.453-30.408 7.058-44.701l-512-703.999c-10.395-14.291-30.408-17.453-44.701-7.059s-17.453 30.406-7.058 44.704l512 703.997c10.395 14.293 30.408 17.453 44.701 7.058zM64 672c0 17.673 14.327 32 32 32h128c17.673 0 32-14.327 32-32v-128c0-17.673-14.327-32-32-32h-128c-17.673 0-32 14.327-32 32v128zM64 160c0 17.673 14.327 32 32 32h128c17.673 0 32-14.327 32-32v-128c0-17.673-14.327-32-32-32h-128c-17.673 0-32 14.327-32 32v128z" />
<glyph unicode="&#xe929;" glyph-name="expansion" d="M192 384h320v-64h-320v64zM192 576h320v-64h-320v64zM256 128h256v-64h-256v64zM64 160c0 17.673 14.327 32 32 32h128c17.673 0 32-14.327 32-32v-128c0-17.673-14.327-32-32-32h-128c-17.673 0-32 14.327-32 32v128zM640 64h320v512h-320v-64h256v-64h-192v-64h192v-64h-192v-192h-64v-64zM576 576h64v-512h-64v512zM192 768h704v-64h-704v64z" />
<glyph unicode="&#xe92a;" glyph-name="elipse" d="M575.69 757.76c-58.593-13.852-119.156-37.664-177.937-71.61-214.25-123.711-323.812-335.14-244.656-472.234 65.906-114.153 241.843-140.783 422.594-75.086v68.586c-72.687-29.703-143.843-42.266-204.687-39.492-83.062 3.789-137.562 34.82-162.468 77.992-24.938 43.164-24.563 105.883 13.687 179.695 37.844 73.055 109.375 148.438 207.532 205.117 48.844 28.188 98.375 48.351 145.937 61.039v65.992zM674.625 185.391c-32.532-18.789-65.625-34.477-98.625-47.086v69.062c22.188 9.539 44.469 20.672 66.625 33.453 98.156 56.68 169.687 132.054 207.531 205.109 25.75 49.672 34.312 94.312 29.594 131.359-5.124-0.844-10.375-1.289-15.75-1.289-53.031 0-96 42.984-96 96 0 7.117 0.781 14.054 2.25 20.726-20.188 5.938-43.188 9.719-68.876 10.891-38.406 1.75-80.937-2.618-125.375-13.547v65.703c85.219 18.562 165.719 15.898 229.781-7.445 16.156 12.336 36.312 19.672 58.219 19.672 53.031 0 96-42.984 96-96 0-23.055-8.125-44.219-21.688-60.773 35.469-134.977-72.344-315.375-263.687-425.836z" />
<glyph unicode="&#xe92b;" glyph-name="comments" d="M512 768h-280c-22.109 0-40-17.512-40-39.111l0.937-80.962c0-21.599 17.891-39.111 40-39.111h12.813c20.703 0 38.008 15.45 39.844 35.616l0.86 9.51c1.875 20.167 14.039 50.058 34.742 50.058h94.804c22.109 0 50.232-27.448 50.232-49.047v-482.147c0-19.212-20.326-36.58-39.74-39.626l-24.219-3.81c-16.328-2.56-28.32-16.326-28.32-32.474 0-18.17 15.039-32.896 33.633-32.896h104.414v704zM512 768h280c22.109 0 40-17.512 40-39.111l-0.937-80.962c0-21.599-17.891-39.111-40-39.111h-12.813c-20.703 0-38.008 15.45-39.844 35.616l-0.86 9.51c-1.875 20.167-14.039 50.058-34.742 50.058h-94.804c-22.109 0-50.232-27.448-50.232-49.047v-482.147c0-19.212 20.326-36.58 39.74-39.626l24.219-3.81c16.328-2.56 28.32-16.326 28.32-32.474 0-18.17-15.039-32.896-33.633-32.896h-104.414v704z" />
<glyph unicode="&#xe92c;" glyph-name="circle" d="M455.875 697.828c-114.375-25.586-199.875-127.718-199.875-249.828h-64c0 156.102 111.781 286.093 259.656 314.32 11.437 40.227 48.437 69.68 92.344 69.68 51.219 0 93.031-40.078 95.844-90.563 113.094-49.344 192.156-162.156 192.156-293.437h-64c0 102.172-59.875 190.367-146.438 231.43-17.469-23.898-45.687-39.43-77.562-39.43-39.469 0-73.375 23.805-88.125 57.828zM256 448h-64c0-176.734 143.281-320 320-320s320 143.266 320 320h-64c0-141.383-114.625-256-256-256s-256 114.617-256 256z" />
<glyph unicode="&#xe92d;" glyph-name="butterfly" d="M291.46 776.608c-37.531 37.664-101.937 15.828-108.812-36.883l-29.687-227.531h64.563l28.594 219.25 218.375-219.25h89.5l0.375 0.438-262.906 263.977zM152.787 512l-44.031-337.571c-8.219-63.046 70.562-98.211 112-49.992l333.063 387.562h-89.5l2.75-2.766-294.844-343.086 45.125 345.852h-64.562zM732.54 776.608c37.531 37.664 101.937 15.828 108.812-36.883l29.687-227.531h-64.563l-28.594 219.25-218.375-219.25h-89.5l-0.375 0.438 262.906 263.977zM572.563 491.211c2.25 6.516 3.437 13.516 3.437 20.789 0 35.344-28.656 64-64 64s-64-28.656-64-64c0-35.344 28.656-64 64-64 4.219 0 8.344 0.406 12.312 1.18l279.062-324.742c41.438-48.219 120.219-13.055 112 49.992l-44.031 337.571h-64.563l45.125-345.852-279.344 325.062z" />
<glyph unicode="&#xe92e;" glyph-name="arrow" d="M480 704c-17.673 0-32 14.327-32 32s14.327 32 32 32h320c17.67 0 32-14.327 32-32v-320c0-17.673-14.33-32-32-32s-32 14.327-32 32v242.745l-585.373-585.375c-12.497-12.493-32.758-12.493-45.255 0-12.497 12.499-12.497 32.762 0 45.261l585.372 585.37h-242.745z" />
<glyph unicode="&#xe92f;" glyph-name="arc" d="M640 64h320v512h-320v-64h256v-64h-192v-64h192v-64h-192v-192h-64v-64zM576 576h64v-512h-64v512zM256 288.727c0 115.297 112 210.25 256 222.633v-64.188c-120.406-11.898-192-89.985-192-158.445s71.594-146.547 192-158.445v-64.188c-144 12.383-256 107.336-256 222.633zM512 640c-214.813-13.828-384-165.68-384-350.977 0-85.578 36.094-164.015 96.093-225.023h100.282c-82.344 54.422-132.375 137.867-132.375 225.023 0 141.547 132 273.32 320 286.86v64.117zM96 896c-17.687 0-32-14.328-32-32v-128c0-17.672 14.313-32 32-32h113.187l129.563-128.234c12.563-12.43 32.812-12.328 45.25 0.234s12.344 32.82-0.219 45.258l-127.781 126.438v116.305c0 17.672-14.312 32-32 32h-128z" />
<glyph unicode="&#xe930;" glyph-name="Andrew-channel" d="M128 512c0 35.346 28.654 64 64 64h64c35.346 0 64-28.654 64-64v-64c0-35.346-28.654-64-64-64h-64c-35.346 0-64 28.654-64 64v64zM448 192c0 35.346 28.654 64 64 64h64c35.346 0 64-28.654 64-64v-64c0-35.346-28.654-64-64-64h-64c-35.346 0-64 28.654-64 64v64zM128 192c0 35.346 28.654 64 64 64h64c35.346 0 64-28.654 64-64v-64c0-35.346-28.654-64-64-64h-64c-35.346 0-64 28.654-64 64v64zM790.813 729.827c12.497-12.497 12.497-32.758 0-45.255l-530.744-530.744c-12.499-12.499-32.758-12.497-45.255 0s-12.499 32.755 0 45.255l530.744 530.744c12.497 12.497 32.758 12.497 45.255 0zM854.813 489.187c12.497-12.497 12.497-32.758 0-45.255l-338.745-338.745c-12.497-12.497-32.758-12.497-45.255 0s-12.497 32.758 0 45.255l338.745 338.745c12.497 12.497 32.758 12.497 45.255 0zM534.813 809.187c12.497-12.497 12.497-32.758 0-45.255l-338.745-338.745c-12.497-12.497-32.758-12.497-45.255 0s-12.497 32.758 0 45.255l338.745 338.745c12.497 12.497 32.758 12.497 45.255 0z" />
<glyph unicode="&#xe931;" glyph-name="abc" d="M106.355 488.429c-13.018 11.953-13.882 32.196-1.933 45.214l121.741 132.587c19.251 20.972 52.928 18.897 69.466-4.278l67.105-94.045 116.057 154.904c17.919 23.917 53.788 23.917 71.707 0l115.052-153.562 203.753 308.213c9.746 14.743 29.598 18.794 44.341 9.048s18.793-29.599 9.047-44.342l-218.787-330.956c-17.092-25.854-54.643-26.96-73.226-2.156l-116.033 154.871-116.435-155.408c-18.18-24.266-54.71-23.841-72.321 0.841l-68.602 96.141-105.722-115.142c-11.949-13.018-32.192-13.882-45.21-1.929zM245.592 419.798c-3.88 14.933-18.291 26.282-36.029 26.282-18.292 0-32.704-11.349-36.029-26.282l-108.642-376.048c-3.88-15.612 4.989-35.297 24.943-41.406 17.738-5.43 33.812 5.43 38.246 21.043l27.838 104.755h106.988l26.475-104.077c3.88-15.612 19.955-26.472 38.246-21.043 19.955 6.109 28.269 25.795 24.389 41.406l-106.426 375.37zM209.564 337.665l42.681-145.842h-86.47l43.789 145.842zM704.64 164.945c0-89.6 45.452-164.945 130.26-164.945 57.647 0 100.328 34.618 100.328 71.951 0 14.934-7.206 27.152-21.617 27.152-13.857 0-18.292-2.716-34.921-15.612-11.64-8.146-22.726-12.218-44.344-12.218-35.475 0-64.853 27.83-64.853 88.242v128.291c0 61.091 29.378 88.921 64.853 88.921 21.618 0 33.812-7.466 45.452-16.291 12.195-10.182 21.064-13.576 33.258-13.576 11.64 0 22.172 10.182 22.172 28.509 0 37.333-42.681 72.63-100.328 72.63-84.807 0-130.26-75.345-130.26-164.945v-118.109zM384 41.833c0-16.291 13.303-35.297 33.258-35.297h94.785c100.882 0 127.488 57.018 127.488 118.109v4.751c0 44.8-14.412 81.455-61.527 98.424 34.921 17.648 49.333 48.872 49.333 88.242v4.752c0 61.091-35.475 120.145-126.934 120.145h-83.145c-19.955 0-33.258-15.612-33.258-31.903v-367.224zM448.853 193.203h63.19c43.789 0 62.636-24.436 62.636-57.018v-10.182c0-32.582-20.509-54.303-62.636-54.303h-63.19v121.503zM500.403 373.081c41.572 0 62.636-19.684 62.636-52.266v-12.897c0-29.188-17.183-48.872-50.995-52.266h-63.19v117.43h51.549z" />
<glyph unicode="&#xe932;" glyph-name="line2" d="M736.403 507.798c-14.368-28.211-39.059-62.972-81.394-62.972-34.001 0-57.467 16.242-73.114 37.762-13.157 18.661-21.961 42.526-28.948 62.169-0.457 1.285-0.906 2.552-1.349 3.8-6.324 17.837-11.325 31.939-19.147 42.042-5.548 7.545-10.949 11.156-20.421 11.509-0.897-0.707-2.578-2.317-5.009-5.702-6.951-9.4-12.638-22.484-19.206-41.91-13.342-39.064-24.267-91.516-35.616-146.008l-0.577-2.771c-11.557-55.482-23.612-112.899-38.465-156.405-7.645-22.193-17.519-43.805-28.107-58.685-11.401-15.715-29.567-32.278-55.646-32.278-40.035 0-62.791 27.619-75.434 53.736-11.758 24.765-19.244 56.787-25.755 85.314-0.234 1.022-0.465 2.040-0.696 3.053-6.214 27.256-11.654 51.113-20.388 68.483-7.576 15.468-13.19 17.53-17.542 17.734 0.255 0.136 0.451 0.337 0.489 0.41 0.040 0.076-0.094 0.013-0.515-0.408-0.298 0.013-0.589 0.019-0.875 0.019 0.268-0.222 0.583-0.173 0.846-0.047-0.266-0.268-0.64-0.673-1.149-1.264-4.431-4.042-7.524-9.124-12.367-19.389-10.468-21.623-19.011-51.708-27.652-87.985-5.575-23.355-10.903-48.508-16.289-73.932-11.419-53.902-23.096-109.032-37.933-150.836-5.944-16.64-24.255-25.312-40.898-19.373-16.644 5.946-25.317 24.256-19.373 40.902 13.469 37.453 24.285 88.745 35.319 141.068 5.47 25.938 10.993 52.129 16.919 77.015 8.998 37.701 19.611 74.249 32.174 100.763 6.673 13.804 16.063 28.166 25.38 37.552 11.064 10.807 26.179 19.527 45.023 19.527 40.073 0 63.060-27.346 75.92-53.603 11.91-24.797 19.485-56.888 26.003-85.446 0.294-1.288 0.586-2.57 0.876-3.843 6.143-26.962 11.528-50.593 20.090-67.827 7.214-14.904 12.55-17.24 16.472-17.571 0.91 0.687 2.653 2.303 5.197 5.81 7.019 9.39 12.751 22.449 19.37 41.861 13.595 39.459 24.659 92.575 36.136 147.675l0.213 1.024c11.554 55.466 23.536 112.842 38.254 156.326 7.574 22.179 17.34 43.765 27.811 58.636 11.236 15.652 29.301 32.407 55.418 32.407 34.079 0 57.721-16.081 73.562-37.622 13.32-18.685 22.232-42.623 29.235-62.308 0.516-1.451 1.021-2.879 1.519-4.283 6.255-17.656 11.218-31.663 18.895-41.7 5.799-7.976 11.294-11.398 21.349-11.398 2.21 0 10.929 1.636 24.37 28.020 12.506 24.294 22.534 57.257 33.376 92.874l0.608 2.008c11.072 36.385 23.027 75.379 37.952 105.198 14.157 28.041 38.63 63.073 80.896 63.073 19.258 0 34.592-9.098 45.722-20.191 9.414-9.672 18.848-24.411 25.6-38.649 12.742-27.392 23.488-65.048 32.659-103.805 5.92-25.046 11.347-50.585 16.64-75.533 11.648-54.828 22.682-106.803 37.069-144.425 6.31-16.508-1.958-35.007-18.464-41.317-16.512-6.311-35.008 1.955-41.318 18.463-16.243 42.486-29.114 103.025-41.318 160.411-5.018 23.582-9.914 46.632-14.893 67.676-8.838 37.414-17.594 68.762-28.307 91.331-4.973 10.742-8.256 16.223-12.858 20.526-0.57 0.668-0.979 1.116-1.274 1.407 0.23-0.086 0.499-0.093 0.742 0.106-0.186 0-0.448-0.015-0.781-0.071-0.448 0.445-0.589 0.495-0.544 0.406 0.038-0.085 0.243-0.293 0.512-0.412-2.88-0.509-10.989-4.149-22.95-27.841-12.288-24.072-22.202-56.662-32.915-91.887-0.314-1.030-0.627-2.062-0.941-3.096-11.078-36.409-23.123-75.455-38.189-105.3zM831.398 735.923c0.026-0.010 0.045-0.020 0.070-0.029-0.013 0.012-0.026 0.024-0.038 0.035-0.006-0.002-0.019-0.004-0.032-0.006zM327.311 221.949c-0.001 0.012 0.096 0.072 0.291 0.141-0.193-0.118-0.291-0.154-0.291-0.141zM189.534 386.642c0.019 0.009 0.037 0.018 0.055 0.028-0.009 0.001-0.017 0.001-0.026 0.001-0.010-0.010-0.019-0.019-0.029-0.029zM512.795 602.6c0-0.012-0.095-0.073-0.287-0.147 0.191 0.122 0.287 0.159 0.287 0.147z" />
<glyph unicode="&#xe933;" glyph-name="doted-line" d="M443.004 760.96l259.993-324.991 167.217 222.955 51.2-38.4-216.785-289.045-252.007 315.009-296.836-534.302-55.946 31.079 343.164 617.695zM192 128c0-35.346-28.654-64-64-64s-64 28.654-64 64c0 35.346 28.654 64 64 64s64-28.654 64-64zM512 704c0-35.346-28.654-64-64-64s-64 28.654-64 64c0 35.346 28.654 64 64 64s64-28.654 64-64zM768 384c0-35.346-28.654-64-64-64s-64 28.654-64 64c0 35.346 28.654 64 64 64s64-28.654 64-64zM960 640c0-35.346-28.654-64-64-64s-64 28.654-64 64c0 35.346 28.654 64 64 64s64-28.654 64-64z" />
<glyph unicode="&#xe934;" glyph-name="Candle" d="M128 736c0 17.673 14.327 32 32 32h128c17.673 0 32-14.327 32-32v-512c0-17.673-14.327-32-32-32h-128c-17.673 0-32 14.327-32 32v512zM384 544c0 17.673 14.327 32 32 32h128c17.673 0 32-14.327 32-32v-384c0-17.673-14.327-32-32-32h-128c-17.673 0-32 14.327-32 32v384zM640 672c0 17.673 14.327 32 32 32h128c17.673 0 32-14.327 32-32v-256c0-17.673-14.327-32-32-32h-128c-17.673 0-32 14.327-32 32v256zM192 896h64v-896h-64v896zM448 768h64v-832h-64v832zM704 896h64v-768h-64v768z" />
<glyph unicode="&#xe935;" glyph-name="bar" d="M256 896h-64v-960h64v960zM384 704h-128v-128h128v128zM192 256h-128v-128h128v128zM704 192h-128v-128h128v128zM512 448h-128v-128h128v128zM576 768h-64v-768h64v768zM1024 384h-128v-128h128v128zM832 640h-128v-128h128v128zM896 832h-64v-768h64v768z" />
<glyph unicode="&#xe936;" glyph-name="area" d="M329.186 190.349c-88.111 0-51.626 228.34-140.716 228.34-61.706 0-80.198-205.58-116.339-328.795-3.737-12.742-58.373-89.894-45.096-89.894h903.941c16.378 0 30.125 12.339 31.213 28.678 6.272 94.131 3.738 248.585 0.973 313.427-1.504 35.315-8.134 91.995-15.059 126.657-20.704 103.654-66.362 299.238-116.109 299.238-88.115 0-88.115-291.173-177.203-291.173-88.111 0-55.469 157.311-144.559 157.311-88.112 0-91.955-443.788-181.046-443.788z" />
<glyph unicode="&#xe937;" glyph-name="price-statistic" d="M128 832h320v-128h-320v128zM128 640h320v-128h-320v128zM128 448h320v-128h-320v128zM128 256h320v-128h-320v128zM576 832h320v-128h-320v128zM576 640h320v-128h-320v128zM576 448h320v-128h-320v128zM576 256h320v-128h-320v128z" />
<glyph unicode="&#xe938;" glyph-name="strelka" d="M832 800c0 17.673 14.327 32 32 32v0c17.673 0 32-14.327 32-32v-704c0-17.67-14.327-32-32-32v0c-17.673 0-32 14.33-32 32v704zM768 448.168l-217.937-272.422c-8.657-10.812-25.938-2.086-22.375 11.297l52.593 197.125h-388.281v128h388.281l-52.593 197.125c-3.563 13.383 13.718 22.109 22.375 11.297l217.937-272.422z" />
<glyph unicode="&#xe939;" glyph-name="closeBuy" d="M128 832h768v-64h-768v64zM671.864 704c8.487 0.003 16.628-3.366 22.631-9.365l192.125-192c12.5-12.493 12.508-32.754 0.015-45.255s-32.754-12.508-45.255-0.015l-137.487 137.398 0.108-466.756c0.004-17.673-14.319-32.003-31.993-32.007s-32.003 14.319-32.007 31.993l-0.108 466.734-137.258-137.347c-12.493-12.5-32.754-12.508-45.255-0.015s-12.507 32.754-0.015 45.255l191.875 192c5.999 6.003 14.138 9.377 22.624 9.38zM672 512l-192-64 192 224 192-224-192 64z" />
<glyph unicode="&#xe93a;" glyph-name="openSell" d="M896 64h-768v64h768v-64zM352.136 191.36c-8.487-0.003-16.628 3.366-22.631 9.365l-192.125 192c-12.5 12.493-12.508 32.754-0.015 45.255s32.754 12.508 45.255 0.015l137.487-137.398-0.108 466.756c-0.004 17.673 14.319 32.003 31.993 32.007s32.003-14.319 32.007-31.993l0.108-466.734 137.258 137.347c12.493 12.5 32.754 12.508 45.255 0.015s12.507-32.754 0.015-45.255l-191.875-192c-5.999-6.003-14.138-9.377-22.624-9.38zM352 383.36l192 64-192-224-192 224 192-64z" />
<glyph unicode="&#xe93b;" glyph-name="openBuy" d="M128 832h768v-64h-768v64zM351.864 704c8.487 0.003 16.628-3.366 22.631-9.365l192.125-192c12.5-12.493 12.508-32.754 0.015-45.255s-32.754-12.508-45.255-0.015l-137.487 137.398 0.108-466.756c0.004-17.673-14.319-32.003-31.993-32.007s-32.003 14.319-32.007 31.993l-0.108 466.734-137.258-137.347c-12.493-12.5-32.754-12.508-45.255-0.015s-12.507 32.754-0.015 45.255l191.875 192c5.999 6.003 14.138 9.377 22.624 9.38zM352 512l-192-64 192 224 192-224-192 64z" />
<glyph unicode="&#xe93c;" glyph-name="closeSell" d="M896 64h-768v64h768v-64zM672.136 191.36c-8.487-0.003-16.628 3.366-22.631 9.365l-192.125 192c-12.5 12.493-12.508 32.754-0.015 45.255s32.754 12.508 45.255 0.015l137.487-137.398-0.108 466.756c-0.004 17.673 14.319 32.003 31.993 32.007s32.003-14.319 32.007-31.993l0.108-466.734 137.258 137.347c12.493 12.5 32.754 12.508 45.255 0.015s12.507-32.754 0.015-45.255l-191.875-192c-5.999-6.003-14.138-9.377-22.624-9.38zM672 383.36l192 64-192-224-192 224 192-64z" />
<glyph unicode="&#xe93d;" glyph-name="headnshoulders" d="M832 128h128v-128h-128v128zM64 128h128v-128h-128v128zM768 576h128v-128h-128v128zM128 576h128v-128h-128v128zM448 896h128v-128h-128v128zM511.99 864c15.133 0 28.196-10.6 31.314-25.408l112.309-533.469 149.748 224.627c7.36 11.039 20.768 16.392 33.709 13.457 12.934-2.934 22.72-13.548 24.602-26.682l64-448.001-63.36-9.050-52.154 365.085-145.542-218.314c-7.147-10.72-20.026-16.102-32.677-13.67-12.652 2.438-22.608 12.224-25.262 24.832l-96.687 459.26-96.686-459.26c-2.654-12.608-12.611-22.394-25.262-24.832-12.652-2.432-25.53 2.95-32.677 13.67l-145.541 218.314-52.155-365.085-63.357 9.050 64 448.001c1.876 13.133 11.661 23.747 24.6 26.682s26.345-2.418 33.704-13.457l149.752-224.627 112.309 533.469c3.117 14.808 16.181 25.408 31.313 25.408z" />
<glyph unicode="&#xe93e;" glyph-name="gannbox" d="M576 512h-64v320h64v-320zM384 192h-64v640h64v-640zM320 832v-64h-128v64h128zM512 832v-64h-128v64h128zM320 640v-64h-128v64h128zM512 640v-64h-128v64h128zM704 640v-64h-128v64h128zM320 256v-64h-128v64h128zM320 448v-64h-128v64h128zM512 448v-64h-128v64h128zM512 256v-64h-128v64h128zM704 832v-64h-128v64h128zM576 0h320v512h-320v-64h256v-64h-192v-256h128v64h-64v64h128v-192h-256v-64zM512 512h64v-512h-64v512zM128 832v-576h-32c-17.687 0-32-14.328-32-32v-64c0-17.67 14.313-32 32-32h64c17.688 0 32 14.33 32 32v672h-64zM736 896c-17.687 0-32-14.328-32-32v-352h64v256h32c17.688 0 32 14.328 32 32v64c0 17.672-14.312 32-32 32h-64z" />
<glyph unicode="&#xe93f;" glyph-name="flag" d="M256 800c0 17.673 14.327 32 32 32s32-14.327 32-32v-704c0-17.67-14.327-32-32-32s-32 14.33-32 32v704zM896 384h-576v64h472.438l-96 128h-376.438v192h576l-128-192 128-192z" />
<glyph unicode="&#xe940;" glyph-name="tp" d="M453.594 320.906c0 22-7.791 38.958-23.375 50.875-15.354 11.917-43.198 23.948-83.532 36.094s-72.417 25.667-96.25 40.563c-45.604 28.646-68.406 66-68.406 112.062 0 40.333 16.385 73.563 49.157 99.688 33 26.125 75.74 39.187 128.218 39.187 34.833 0 65.885-6.417 93.156-19.25s48.698-31.167 64.281-55c15.583-23.604 23.375-49.844 23.375-78.719h-86.625c0 26.125-8.25 46.521-24.75 61.187-16.271 14.896-39.645 22.344-70.125 22.344-28.417 0-50.531-6.073-66.344-18.218-15.583-12.146-23.375-29.105-23.375-50.876 0-18.333 8.479-33.687 25.437-46.062 16.958-12.146 44.916-24.063 83.875-35.75 38.959-11.458 70.24-24.636 93.844-39.531 23.604-14.667 40.906-31.625 51.907-50.875 11-19.021 16.5-41.365 16.5-67.032 0-41.708-16.042-74.938-48.125-99.687-31.854-24.521-75.167-36.781-129.938-36.781-36.208 0-69.552 6.646-100.031 19.937-30.25 13.521-53.854 32.083-70.813 55.688-16.729 23.604-25.094 51.104-25.094 82.5h86.969c0-28.417 9.396-50.417 28.188-66s45.718-23.375 80.781-23.375c30.25 0 52.938 6.073 68.063 18.218 15.354 12.375 23.031 28.646 23.031 48.813zM703.844 261.437h227.218v-69.437h-314.187v512h86.969v-442.563z" />
<glyph unicode="&#xe941;" glyph-name="sl" d="M530.875 622.625h-156.062v-430.375h-86.282v430.375h-154.687v70.125h397.031v-70.125zM683.844 389.469v-185.969h-86.969v500.5h191.471c55.917 0 100.256-14.552 133.030-43.656 32.998-29.104 49.498-67.604 49.498-115.5 0-49.041-16.154-87.197-48.467-114.468-32.083-27.271-77.114-40.906-135.098-40.906h-103.466zM683.844 459.25h104.502c30.938 0 54.541 7.219 70.81 21.656 16.269 14.667 24.41 35.75 24.41 63.25 0 27.042-8.256 48.584-24.755 64.625-16.499 16.271-39.187 24.636-68.058 25.094h-106.909v-174.625z" />
<glyph unicode="&#xe942;" glyph-name="price-targets" d="M448 832h128v-64h-128v64zM448 128h128v-64h-128v64zM128 768h320v-64h-256v-133.461c37.281-13.18 64-48.742 64-90.539s-26.719-77.359-64-90.539v-197.461h256v-64h-320v261.461c-37.281 13.18-64 48.742-64 90.539s26.719 77.359 64 90.539v197.461zM896 128h-448v64h384v197.461c-37.281 13.18-64 48.742-64 90.539s26.719 77.359 64 90.539v133.461h-384v64h448v-197.461c37.281-13.18 64-48.742 64-90.539s-26.719-77.359-64-90.539v-261.461zM773.469 512h-522.938c3.531-10.008 5.469-20.781 5.469-32s-1.937-21.992-5.469-32h522.938c-3.532 10.008-5.469 20.781-5.469 32s1.937 21.992 5.469 32z" />
<glyph unicode="&#xe943;" glyph-name="up" d="M448.020 480.003h-210.451c-37.16 0-35.391 36.911-13.534 64l251.215 303.121c18.157 22.502 55.385 22.502 73.542 0l251.223-303.121c21.856-27.089 23.617-64-13.543-64h-210.451l0.015-334.031c0-45.272-13.779-81.971-64-81.971s-64 36.699-64 81.971l-0.015 334.031z" />
<glyph unicode="&#xe944;" glyph-name="down" d="M576.015 447.997h210.451c37.16 0 35.391-36.911 13.534-64l-251.215-303.121c-18.157-22.502-55.385-22.502-73.542 0l-251.223 303.121c-21.856 27.089-23.617 64 13.543 64h210.451l-0.015 334.031c0 45.272 13.779 81.971 64 81.971s64-36.699 64-81.971l0.015-334.031z" />
<glyph unicode="&#xe945;" glyph-name="price_picker" d="M561.598 760.54c-38.214 6.161-77.078-6.395-104.453-33.77l-259.53-259.53c-47.081-47.081-47.082-123.426-0.001-170.506l170.505-170.505c47.080-47.080 123.425-47.080 170.506 0.001l259.53 259.53c27.375 27.375 39.931 66.24 33.771 104.453l-23.681 146.824c-8.263 51.306-48.516 91.559-99.822 99.822l-146.824 23.681zM623.877 552.492c-23.54 23.54-23.54 61.712 0 85.252s61.712 23.54 85.252 0c23.54-23.54 23.541-61.712 0-85.252s-61.713-23.54-85.253 0z" />
<glyph unicode="&#xe946;" glyph-name="pick" d="M512 832c-141.375 0-256-120.344-256-268.797 0-148.461 146.281-467.203 256-467.203v362.883c-60.594 0-109.719 49.149-109.719 109.766s49.125 109.758 109.719 109.758v153.594zM512 832c141.375 0 256-120.344 256-268.797 0-148.461-146.281-467.203-256-467.203v362.883c60.594 0 109.719 49.149 109.719 109.766s-49.125 109.758-109.719 109.758v153.594z" />
<glyph unicode="&#xe947;" glyph-name="strelki" d="M290.25 587.514l-116.031-139.235 675.81-0.282-116.282 139.516c-11.309 13.578-9.466 33.75 4.096 45.070 13.594 11.313 33.779 9.476 45.094-4.102l177.062-212.484-177.062-212.484c-11.315-13.581-31.501-15.411-45.094-4.102-13.562 11.315-15.405 31.494-4.096 45.069l116.282 139.518-676.279 0.282 116.5-139.8c11.312-13.574 9.469-33.747-4.094-45.069-13.594-11.309-33.781-9.478-45.094 4.102l-177.062 212.484 177.062 212.484c11.313 13.578 31.5 15.414 45.094 4.102 13.563-11.313 15.406-31.492 4.094-45.070z" />
<glyph unicode="&#xe948;" glyph-name="Comment" d="M768 192h-384l384-192v192zM256 512h512v-64h-512v64zM256 384h384v-64h-384v64zM256 640h384v-64h-384v64zM832 768h64v-576h-64v576zM832 768h-704v-576h704v64h-640v448h640v64z" />
<glyph unicode="&#xe949;" glyph-name="angle_tool" d="M640 800c0 17.672 14.31 32 32 32h128c17.69 0 32-14.328 32-32v-128c0-17.672-14.31-32-32-32h-109.498l-370.502-423.43v-120.57c0-17.67-14.312-32-32-32h-128c-17.688 0-32 14.33-32 32v128c0 17.67 14.312 32 32 32h109.469l370.531 423.461v120.539zM320 128h544c17.69 0 32 14.33 32 32s-14.31 32-32 32h-544v-64zM468.25 386.555c72.781-26.813 130.25-100.884 141.062-194.555h64.313c-10.285 108.922-72.469 202.687-161.032 245.258l-44.344-50.703z" />
<glyph unicode="&#xe94a;" glyph-name="bells" d="M596.038 137.946c0-9.626-2.173-19.162-6.396-28.058s-10.412-16.973-18.213-23.782c-7.802-6.81-17.064-12.211-27.258-15.891-10.194-3.686-21.119-5.581-32.153-5.581s-21.959 1.894-32.152 5.581c-10.194 3.68-19.456 9.082-27.258 15.891s-13.991 14.886-18.213 23.782c-4.222 8.896-6.396 18.432-6.396 28.058h168.038zM512 832c-35.346 0-64-28.654-64-64v-64c-70.692 0-128-57.308-128-128v-112.892c0-9.936-2.314-19.735-6.756-28.622l-50.487-100.973c-4.443-8.887-6.756-18.685-6.756-28.624v-80.89c0-17.67 14.327-32 32-32h448c17.67 0 32 14.33 32 32v80.89c0 9.939-2.31 19.737-6.758 28.624l-50.483 100.973c-4.448 8.887-6.758 18.686-6.758 28.622v112.892c0 70.692-57.306 128-128 128v64c0 35.346-28.654 64-64 64z" />
<glyph unicode="&#xe94b;" glyph-name="orderFlowStats" d="M192 832h64v-64h576v-64h-576v-64h320v-64h-320v-64h128v-64h-128v-64h192v-64h-192v-64h384v-64h-384v-64h576v-64h-640v768z" />
<glyph unicode="&#xe94c;" glyph-name="trianglePattern" d="M108.605 893.412l219.565-94.099c10.965 19.508 31.859 32.687 55.83 32.687h64c35.346 0 64-28.654 64-64v-47.471l132.544-56.804c9.421 23.6 32.493 40.275 59.456 40.275h64c35.347 0 64-28.654 64-64v-56.614l172.608-73.974c11.45-4.908 19.014-16.018 19.379-28.472s-6.534-23.99-17.677-29.562l-430.31-215.154v-44.224c0-35.347-28.654-64-64-64h-64c-18.633 0-35.407 7.962-47.103 20.672l-208.897-104.448v-44.224c0-35.347-28.654-64-64-64h-64c-35.346 0-64 28.653-64 64v64c0 35.347 28.654 64 64 64v736c0 10.756 5.404 20.794 14.384 26.715s20.335 6.935 30.221 2.698zM640 596.042l-146.614 62.835c-9.049-9.101-20.817-15.496-33.983-17.864l37.766-321.013h14.831c2.996 0 5.946-0.205 8.833-0.602l133.254 216.538c-8.813 10.967-14.086 24.899-14.086 40.064v20.042zM714.509 512l-119.976-194.957 321.448 160.723-109.638 46.986c-10.688-8.008-23.962-12.752-38.342-12.752h-53.491zM384 256c0 30.157 20.86 55.443 48.938 62.214l-35.299 300.041-229.335-504.54c2.419-1.958 4.691-4.096 6.799-6.387l208.897 104.448v44.224zM320 733.185l-192 82.286v-635.759l215.709 474.56c-14.465 11.734-23.709 29.651-23.709 49.728v29.185z" />
<glyph unicode="&#xe94d;" glyph-name="Three-drives-pattern" d="M0 832c0 35.346 28.654 64 64 64h64c35.346 0 64-28.654 64-64v-44.219l80.9-40.45c11.696 12.707 28.468 20.669 47.1 20.669h64c35.346 0 64-28.654 64-64v-44.219l80.9-40.45c11.696 12.707 28.468 20.669 47.1 20.669h64c35.347 0 64-28.654 64-64v-44.219l98.579-49.288 161.984 269.971c9.088 15.155 28.749 20.068 43.898 10.976 15.155-9.093 20.070-28.749 10.976-43.904l-159.45-265.75 82.33-41.164c15.808-7.904 22.214-27.125 14.31-42.932s-27.123-22.215-42.931-14.311l-86.733 43.366-137.837-229.727c9.286-11.104 14.874-25.408 14.874-41.018v-58.349l78.854-41.306c15.654-8.198 21.696-27.539 13.498-43.194s-27.539-21.696-43.194-13.498l-76.339 39.987c-10.413-7.334-23.117-11.642-36.819-11.642h-64c-35.347 0-64 28.653-64 64v33.978l-86.494 45.306c-11.175-9.53-25.668-15.283-41.506-15.283h-64c-35.346 0-64 28.653-64 64v40.070l-82.309 43.117c-11.615-11.84-27.795-19.187-45.691-19.187h-64c-35.346 0-64 28.653-64 64v64c0 35.346 28.654 64 64 64v256c-35.346 0-64 28.654-64 64v64zM128 704v-256c1.254 0 2.499-0.036 3.734-0.107l130.923 163.653c-4.261 8.571-6.657 18.232-6.657 28.454v44.227l-80.894 40.447c-11.697-12.71-28.471-20.675-47.106-20.675zM316.266 576.107l-130.923-163.653c4.261-8.571 6.657-18.232 6.657-28.454v-46.157l78.588-41.165c11.738 14.24 29.515 23.322 49.412 23.322v256c-1.254 0-2.499 0.036-3.734 0.107zM384 320c1.254 0 2.499-0.038 3.734-0.109l130.923 163.655c-4.261 8.571-6.657 18.232-6.657 28.454v44.227l-80.894 40.447c-11.697-12.71-28.471-20.675-47.106-20.675v-256zM441.343 284.454c4.261-8.57 6.657-18.234 6.657-28.454v-52.25l75.29-39.443c11.545 16.73 30.847 27.693 52.71 27.693v256c-1.254 0-2.499 0.036-3.734 0.107l-130.923-163.652zM640 448v-236.467l129.555 215.918-82.451 41.224c-11.693-12.71-28.467-20.675-47.104-20.675z" />
<glyph unicode="&#xe94e;" glyph-name="Elliot-Impulse-Wave" d="M768 960c-17.67 0-32-14.327-32-32v-128c0-17.673 14.33-32 32-32h128v-64h-128c-17.67 0-32-14.327-32-32s14.33-32 32-32h160c17.67 0 32 14.327 32 32v128c0 17.673-14.33 32-32 32h-128v64h128c17.67 0 32 14.327 32 32s-14.33 32-32 32h-160zM364.246 957.563c11.958-4.953 19.754-16.621 19.754-29.564v-256c0-17.674-14.327-32-32-32s-32 14.326-32 32v178.745l-73.373-73.373c-12.497-12.497-32.758-12.497-45.254 0s-12.497 32.758 0 45.255l128 128c9.152 9.152 22.915 11.89 34.873 6.937zM832 512c-35.347 0-64-28.654-64-64v-64c0-10.221 2.394-19.882 6.656-28.452l-130.925-163.656c-1.235 0.070-2.477 0.109-3.731 0.109h-64c-1.253 0-2.497-0.038-3.732-0.109l-130.924 163.656c4.26 8.571 6.657 18.232 6.657 28.452v64c0 35.346-28.654 64-64 64h-64c-35.346 0-64-28.654-64-64v-64c0-8.41 1.622-16.442 4.571-23.798-30.726-35.539-63.621-74.23-93.279-110.262-16.781-20.39-32.644-40.070-46.548-57.939h-56.744c-35.346 0-64-28.653-64-64v-64c0-35.347 28.654-64 64-64h64c35.346 0 64 28.653 64 64v64c0 13.587-4.232 26.182-11.451 36.544 11.057 13.978 23.254 29.043 36.159 44.723 29.916 36.346 63.251 75.526 94.257 111.366 2.952-0.417 5.969-0.633 9.036-0.633h64c1.254 0 2.5 0.036 3.736 0.108l130.922-163.653c-4.262-8.57-6.658-18.234-6.658-28.454v-64c0-35.347 28.653-64 64-64h64c35.347 0 64 28.653 64 64v64c0 10.221-2.394 19.885-6.656 28.454l130.918 163.653c1.235-0.072 2.483-0.108 3.738-0.108h64c35.347 0 64 28.653 64 64v64c0 35.346-28.653 64-64 64h-64z" />
</font>
</defs>
</svg>
