<svg width="60" height="60" viewBox="0 0 60 60" version="1.1" xmlns="http://www.w3.org/2000/svg" xmlns:xlink="http://www.w3.org/1999/xlink">
<title>Vector</title>
<desc>Created using Figma</desc>
<g id="Canvas" transform="translate(-2208 -987)">
<g id="Vector">
<use xlink:href="#path0_fill" transform="translate(2208 987)" fill="#252E37"/>
<use xlink:href="#path1_fill" transform="translate(2208 987)" fill="#252E37"/>
<use xlink:href="#path2_fill" transform="translate(2208 987)" fill="#252E37"/>
</g>
</g>
<defs>
<path id="path0_fill" d="M 30 0C 13.3959 0 0 13.3959 0 30C 0 46.5478 13.3959 60 30 60C 46.5478 60 60 46.6041 60 30C 59.9437 13.3959 46.5478 0 30 0ZM 47.167 49.6998L 47.167 35.8537L 37.7674 34.728L 37.7674 54.9343C 36.8105 55.2158 35.8537 55.4409 34.8405 55.666L 34.8405 31.3508L 47.167 33.3208L 47.167 25.8349L 30 20.6004L 12.833 25.8349L 12.833 33.3771L 25.1595 31.4071L 25.1595 55.7223C 24.1463 55.5535 23.1895 55.272 22.2326 54.9906L 22.2326 34.7842L 12.833 35.9099L 12.833 49.7561C 7.31707 44.9719 3.82739 37.8799 3.82739 30C 3.82739 15.5347 15.5347 3.82739 30 3.82739C 44.4653 3.82739 56.1726 15.5347 56.1726 30C 56.1726 37.8799 52.6829 44.9156 47.167 49.6998Z"/>
<path id="path1_fill" d="M 47.167 23.9212L 47.167 20.2064L 30 13.0582L 12.7767 20.2064L 12.7767 23.9212L 30 18.0676L 47.167 23.9212Z"/>
<path id="path2_fill" d="M 30 10.5816L 41.7074 15.8161L 41.7074 12.3827L 30 6.41651L 18.2364 12.3827L 18.2364 15.8161L 30 10.5816Z"/>
</defs>
</svg>
