<svg width="185" height="23" viewBox="0 0 185 23" version="1.1" xmlns="http://www.w3.org/2000/svg" xmlns:xlink="http://www.w3.org/1999/xlink">
<title>Group 6</title>
<desc>Created using Figma</desc>
<g id="Canvas" transform="translate(-2425 -2048)">
<g id="Group 6">
<g id="QUANTOWER">
<use xlink:href="#path0_fill" transform="translate(2425 2048)" fill="#00566C"/>
<use xlink:href="#path1_fill" transform="translate(2425 2048)" fill="#00566C"/>
<use xlink:href="#path2_fill" transform="translate(2425 2048)" fill="#00566C"/>
<use xlink:href="#path3_fill" transform="translate(2425 2048)" fill="#00566C"/>
<use xlink:href="#path4_fill" transform="translate(2425 2048)" fill="#00566C"/>
<use xlink:href="#path5_fill" transform="translate(2425 2048)" fill="#00566C"/>
<use xlink:href="#path6_fill" transform="translate(2425 2048)" fill="#00566C"/>
<use xlink:href="#path7_fill" transform="translate(2425 2048)" fill="#00566C"/>
<use xlink:href="#path8_fill" transform="translate(2425 2048)" fill="#00566C"/>
</g>
</g>
</g>
<defs>
<path id="path0_fill" d="M 20.2625 11.9274C 20.2625 14.4009 19.636 16.532 18.383 18.3206L 20.2331 20.0331L 17.9132 22.4591L 15.975 20.661C 14.2522 21.7645 12.3043 22.3163 10.1312 22.3163C 8.19308 22.3163 6.45071 21.8882 4.9041 21.032C 3.37708 20.1567 2.17308 18.939 1.2921 17.3787C 0.4307 15.7995 0 13.9823 0 11.9274C 0 9.87242 0.4307 8.06482 1.2921 6.50457C 2.17308 4.92529 3.37708 3.70754 4.9041 2.85131C 6.45071 1.97605 8.19308 1.53842 10.1312 1.53842C 12.0694 1.53842 13.802 1.97605 15.329 2.85131C 16.8756 3.70754 18.0796 4.92529 18.941 6.50457C 19.822 8.06482 20.2625 9.87242 20.2625 11.9274ZM 10.1312 18.7772C 11.3254 18.7772 12.3435 18.5489 13.1853 18.0923L 10.7479 15.8375L 13.0678 13.4115L 15.5346 15.6948C 16.0631 14.6293 16.3274 13.3735 16.3274 11.9274C 16.3274 9.87242 15.7891 8.21704 14.7123 6.96123C 13.6551 5.70542 12.1281 5.07752 10.1312 5.07752C 8.13435 5.07752 6.59754 5.70542 5.52079 6.96123C 4.46361 8.21704 3.93503 9.87242 3.93503 11.9274C 3.93503 13.9823 4.46361 15.6377 5.52079 16.8935C 6.59754 18.1493 8.13435 18.7772 10.1312 18.7772Z"/>
<path id="path1_fill" d="M 32.786 22.3163C 29.9669 22.3163 27.8427 21.5267 26.4136 19.9474C 24.9845 18.3491 24.2699 16.1515 24.2699 13.3544L 24.2699 1.93799L 28.0287 1.93799L 28.0287 12.4126C 28.0287 13.8016 28.156 14.9623 28.4105 15.8946C 28.665 16.8079 29.1348 17.5214 29.82 18.0352C 30.5248 18.5489 31.5135 18.8058 32.786 18.8058C 34.0585 18.8058 35.0374 18.5489 35.7226 18.0352C 36.4274 17.5214 36.907 16.8079 37.1615 15.8946C 37.416 14.9623 37.5433 13.8016 37.5433 12.4126L 37.5433 1.93799L 41.3021 1.93799L 41.3021 13.3544C 41.3021 16.1515 40.5875 18.3491 39.1584 19.9474C 37.7293 21.5267 35.6051 22.3163 32.786 22.3163Z"/>
<path id="path2_fill" d="M 56.3313 17.1789L 48.843 17.1789L 47.1398 21.9168L 43.4984 21.9168L 50.8105 1.93799L 54.3638 1.93799L 61.6759 21.9168L 58.0345 21.9168L 56.3313 17.1789ZM 55.1567 13.9823L 52.6019 6.84706L 50.0177 13.9823L 55.1567 13.9823Z"/>
<path id="path3_fill" d="M 64.4093 1.93799L 68.1094 1.93799L 76.8898 14.8386L 76.8898 1.93799L 80.6486 1.93799L 80.6486 21.9168L 77.5652 21.9168L 68.1681 8.21704L 68.1681 21.9168L 64.4093 21.9168L 64.4093 1.93799Z"/>
<path id="path4_fill" d="M 90.318 4.50809L 83.9274 5.86469L 83.9274 1.93799L 92.3293 0L 100.467 1.93799L 100.467 5.86469L 94.0768 4.50809L 94.0768 21.9168L 92.2332 22.3044L 90.318 21.9168L 90.318 4.50809Z"/>
<path id="path5_fill" d="M 111.109 22.3163C 109.171 22.3163 107.429 21.8882 105.882 21.032C 104.355 20.1567 103.151 18.939 102.27 17.3787C 101.409 15.7995 100.978 13.9823 100.978 11.9274C 100.978 9.87242 101.409 8.06482 102.27 6.50457C 103.151 4.92529 104.355 3.70754 105.882 2.85131C 107.429 1.97605 109.171 1.53842 111.109 1.53842C 113.048 1.53842 114.78 1.97605 116.307 2.85131C 117.854 3.70754 119.058 4.92529 119.919 6.50457C 120.8 8.06482 121.241 9.87242 121.241 11.9274C 121.241 13.9823 120.8 15.7995 119.919 17.3787C 119.058 18.939 117.854 20.1567 116.307 21.032C 114.78 21.8882 113.048 22.3163 111.109 22.3163ZM 111.109 18.7772C 113.106 18.7772 114.633 18.1493 115.691 16.8935C 116.767 15.6377 117.306 13.9823 117.306 11.9274C 117.306 9.87242 116.767 8.21704 115.691 6.96123C 114.633 5.70542 113.106 5.07752 111.109 5.07752C 109.113 5.07752 107.576 5.70542 106.499 6.96123C 105.442 8.21704 104.913 9.87242 104.913 11.9274C 104.913 13.9823 105.442 15.6377 106.499 16.8935C 107.576 18.1493 109.113 18.7772 111.109 18.7772Z"/>
<path id="path6_fill" d="M 122.326 1.93799L 126.232 1.93799L 130.343 16.1229L 134.924 1.93799L 137.537 1.93799L 142.295 15.7519L 146.23 1.93799L 150.135 1.93799L 144.115 21.9168L 140.797 21.9168L 136.216 8.58807L 131.664 21.9168L 128.111 21.9168L 122.326 1.93799Z"/>
<path id="path7_fill" d="M 152.57 1.93799L 165.725 1.93799L 165.725 5.47709L 156.416 5.47709L 156.416 9.72972L 163.64 9.72972L 163.64 13.2688L 156.416 13.2688L 156.416 18.3777L 166.019 18.3777L 166.019 21.9168L 152.57 21.9168L 152.57 1.93799Z"/>
<path id="path8_fill" d="M 169.26 1.93799L 176.778 1.93799C 178.97 1.93799 180.693 2.45173 181.946 3.47921C 183.218 4.48766 183.855 5.99083 183.855 7.98871C 183.855 9.37771 183.551 10.5194 182.944 11.4136C 182.337 12.2889 181.476 12.9929 180.36 13.5257L 185 21.9168L 180.801 21.9168L 176.836 14.4961L 176.689 14.4961L 173.019 14.4961L 173.019 21.9168L 169.26 21.9168L 169.26 1.93799ZM 175.779 11.4422C 178.54 11.4422 179.92 10.3576 179.92 8.1885C 179.92 7.14199 179.606 6.35235 178.98 5.81958C 178.354 5.26779 177.336 4.99189 175.926 4.99189L 173.019 4.99189L 173.019 11.4422L 175.779 11.4422Z"/>
</defs>
</svg>
