<svg width="60" height="60" viewBox="0 0 60 60" version="1.1" xmlns="http://www.w3.org/2000/svg" xmlns:xlink="http://www.w3.org/1999/xlink">
<title>Group 8</title>
<desc>Created using Figma</desc>
<g id="Canvas" transform="translate(-12136 -6825)">
<g id="Group 8">
<g id="Ellipse">
<mask id="mask0_outline_ins">
<use xlink:href="#path0_fill" fill="white" transform="translate(12136 6825)"/>
</mask>
<g mask="url(#mask0_outline_ins)">
<use xlink:href="#path1_stroke_2x" transform="translate(12136 6825)" fill="#00566C"/>
</g>
</g>
<g id="Line">
<use xlink:href="#path2_stroke" transform="matrix(-0.707107 0.707107 0.707107 0.707107 12180 6843)" fill="#6EDEFA"/>
</g>
<g id="Line">
<use xlink:href="#path2_stroke" transform="matrix(0.707107 0.707107 -0.707107 0.707107 12154 6843)" fill="#6EDEFA"/>
</g>
</g>
</g>
<defs>
<path id="path0_fill" d="M 60 30C 60 46.5685 46.5685 60 30 60C 13.4315 60 0 46.5685 0 30C 0 13.4315 13.4315 0 30 0C 46.5685 0 60 13.4315 60 30Z"/>
<path id="path1_stroke_2x" d="M 58 30C 58 45.464 45.464 58 30 58L 30 62C 47.6731 62 62 47.6731 62 30L 58 30ZM 30 58C 14.536 58 2 45.464 2 30L -2 30C -2 47.6731 12.3269 62 30 62L 30 58ZM 2 30C 2 14.536 14.536 2 30 2L 30 -2C 12.3269 -2 -2 12.3269 -2 30L 2 30ZM 30 2C 45.464 2 58 14.536 58 30L 62 30C 62 12.3269 47.6731 -2 30 -2L 30 2Z"/>
<path id="path2_stroke" d="M 0 0L 36 0L 36 -2L 0 -2L 0 0Z"/>
</defs>
</svg>
